<svg width="88" height="46" viewBox="0 0 88 46" fill="none" xmlns="http://www.w3.org/2000/svg">
<path d="M41.859 18.3799H45.1812" stroke="#667085" stroke-linecap="round" stroke-linejoin="round"/>
<path d="M43.52 16.4167V20.3429" stroke="#667085" stroke-linecap="round" stroke-linejoin="round"/>
<path d="M33.75 17.8182L43.75 6L53.75 17.8182" stroke="#667085" stroke-linecap="round" stroke-linejoin="round"/>
<path d="M36.8269 14.1819V26.0001H50.6731V14.1819" stroke="#667085" stroke-linecap="round" stroke-linejoin="round"/>
<path d="M19.7678 38H18.8445L21.515 30.7273H22.4241L25.0945 38H24.1713L21.998 31.8778H21.9411L19.7678 38ZM20.1088 35.1591H23.8303V35.9403H20.1088V35.1591ZM26.1137 38V32.5455H26.9234V33.3977H26.9944C27.108 33.1065 27.2915 32.8804 27.5448 32.7195C27.7981 32.5561 28.1024 32.4744 28.4575 32.4744C28.8173 32.4744 29.1168 32.5561 29.3559 32.7195C29.5974 32.8804 29.7856 33.1065 29.9205 33.3977H29.9774C30.117 33.116 30.3266 32.8923 30.6059 32.7266C30.8853 32.5585 31.2203 32.4744 31.6109 32.4744C32.0986 32.4744 32.4975 32.6271 32.8076 32.9325C33.1178 33.2356 33.2728 33.7079 33.2728 34.3494V38H32.4347V34.3494C32.4347 33.947 32.3247 33.6593 32.1045 33.4865C31.8843 33.3137 31.6251 33.2273 31.3268 33.2273C30.9433 33.2273 30.6462 33.3433 30.4355 33.5753C30.2248 33.8049 30.1194 34.0961 30.1194 34.4489V38H29.2671V34.2642C29.2671 33.9541 29.1665 33.7043 28.9653 33.5149C28.7641 33.3232 28.5048 33.2273 28.1876 33.2273C27.9698 33.2273 27.7662 33.2853 27.5768 33.4013C27.3898 33.5173 27.2383 33.6783 27.1222 33.8842C27.0086 34.0878 26.9518 34.3234 26.9518 34.5909V38H26.1137ZM34.9188 38V30.7273H35.7568V33.4119H35.8279C35.8894 33.3172 35.9746 33.1965 36.0835 33.0497C36.1948 32.9006 36.3534 32.768 36.5594 32.652C36.7677 32.5336 37.0494 32.4744 37.4046 32.4744C37.8638 32.4744 38.2687 32.5893 38.6191 32.8189C38.9694 33.0485 39.2429 33.3741 39.4394 33.7955C39.6359 34.2169 39.7341 34.714 39.7341 35.2869C39.7341 35.8646 39.6359 36.3653 39.4394 36.7891C39.2429 37.2105 38.9706 37.5372 38.6226 37.7692C38.2746 37.9988 37.8733 38.1136 37.4188 38.1136C37.0684 38.1136 36.7878 38.0556 36.5771 37.9396C36.3664 37.8213 36.2043 37.6875 36.0906 37.5384C35.977 37.3868 35.8894 37.2614 35.8279 37.1619H35.7284V38H34.9188ZM35.7426 35.2727C35.7426 35.6847 35.803 36.0481 35.9237 36.3629C36.0445 36.6754 36.2209 36.9205 36.4529 37.098C36.6849 37.2732 36.969 37.3608 37.3051 37.3608C37.6555 37.3608 37.9479 37.2685 38.1823 37.0838C38.419 36.8968 38.5966 36.6458 38.7149 36.331C38.8357 36.0137 38.896 35.661 38.896 35.2727C38.896 34.8892 38.8369 34.5436 38.7185 34.2358C38.6025 33.9257 38.4261 33.6806 38.1894 33.5007C37.955 33.3184 37.6602 33.2273 37.3051 33.2273C36.9642 33.2273 36.6778 33.3137 36.4458 33.4865C36.2137 33.657 36.0386 33.8961 35.9202 34.2038C35.8018 34.5092 35.7426 34.8655 35.7426 35.2727ZM41.0161 38V32.5455H41.8541V38H41.0161ZM41.4422 31.6364C41.2789 31.6364 41.138 31.5807 41.0196 31.4695C40.9036 31.3582 40.8456 31.2244 40.8456 31.0682C40.8456 30.9119 40.9036 30.7782 41.0196 30.6669C41.138 30.5556 41.2789 30.5 41.4422 30.5C41.6056 30.5 41.7452 30.5556 41.8612 30.6669C41.9796 30.7782 42.0388 30.9119 42.0388 31.0682C42.0388 31.2244 41.9796 31.3582 41.8612 31.4695C41.7452 31.5807 41.6056 31.6364 41.4422 31.6364ZM45.676 38.1136C45.1505 38.1136 44.6971 37.9976 44.316 37.7656C43.9372 37.5312 43.6448 37.2045 43.4388 36.7855C43.2352 36.3641 43.1334 35.8741 43.1334 35.3153C43.1334 34.7566 43.2352 34.2642 43.4388 33.8381C43.6448 33.4096 43.9313 33.0758 44.2982 32.8366C44.6675 32.5952 45.0984 32.4744 45.5908 32.4744C45.8749 32.4744 46.1555 32.5218 46.4324 32.6165C46.7094 32.7112 46.9616 32.8651 47.1888 33.0781C47.4161 33.2888 47.5972 33.5682 47.7322 33.9162C47.8671 34.2642 47.9346 34.6927 47.9346 35.2017V35.5568H43.73V34.8324H47.0823C47.0823 34.5246 47.0207 34.25 46.8976 34.0085C46.7769 33.767 46.6041 33.5765 46.3792 33.4368C46.1566 33.2971 45.8939 33.2273 45.5908 33.2273C45.257 33.2273 44.9682 33.3101 44.7243 33.4759C44.4829 33.6392 44.297 33.8523 44.1668 34.1151C44.0366 34.3778 43.9715 34.6596 43.9715 34.9602V35.4432C43.9715 35.8551 44.0425 36.2043 44.1846 36.4908C44.329 36.7749 44.529 36.9915 44.7847 37.1406C45.0404 37.2874 45.3375 37.3608 45.676 37.3608C45.8962 37.3608 46.0951 37.33 46.2726 37.2685C46.4526 37.2045 46.6076 37.1098 46.7378 36.9844C46.868 36.8565 46.9687 36.6979 47.0397 36.5085L47.8493 36.7358C47.7641 37.0104 47.6209 37.2519 47.4197 37.4602C47.2184 37.6662 46.9698 37.8272 46.6739 37.9432C46.378 38.0568 46.0454 38.1136 45.676 38.1136ZM50.0475 34.7188V38H49.2094V32.5455H50.0191V33.3977H50.0901C50.218 33.1207 50.4121 32.8982 50.6725 32.7301C50.9329 32.5597 51.2691 32.4744 51.681 32.4744C52.0503 32.4744 52.3735 32.5502 52.6505 32.7017C52.9275 32.8509 53.1429 33.0781 53.2968 33.3835C53.4507 33.6866 53.5276 34.0701 53.5276 34.5341V38H52.6895V34.5909C52.6895 34.1624 52.5783 33.8286 52.3557 33.5895C52.1332 33.348 51.8278 33.2273 51.4395 33.2273C51.172 33.2273 50.9329 33.2853 50.7222 33.4013C50.5139 33.5173 50.3493 33.6866 50.2286 33.9091C50.1079 34.1316 50.0475 34.4015 50.0475 34.7188ZM57.4312 32.5455V33.2557H54.6045V32.5455H57.4312ZM55.4284 31.2386H56.2664V36.4375C56.2664 36.6742 56.3008 36.8518 56.3694 36.9702C56.4404 37.0862 56.5304 37.1643 56.6393 37.2045C56.7506 37.2424 56.8677 37.2614 56.9909 37.2614C57.0832 37.2614 57.1589 37.2566 57.2181 37.2472C57.2773 37.2353 57.3247 37.2259 57.3602 37.2188L57.5306 37.9716C57.4738 37.9929 57.3945 38.0142 57.2927 38.0355C57.1909 38.0592 57.0619 38.071 56.9056 38.071C56.6689 38.071 56.4369 38.0201 56.2096 37.9183C55.9847 37.8165 55.7977 37.6615 55.6485 37.4531C55.5017 37.2448 55.4284 36.982 55.4284 36.6648V31.2386ZM60.9202 38.1136C60.3946 38.1136 59.9413 37.9976 59.5601 37.7656C59.1813 37.5312 58.8889 37.2045 58.683 36.7855C58.4794 36.3641 58.3776 35.8741 58.3776 35.3153C58.3776 34.7566 58.4794 34.2642 58.683 33.8381C58.8889 33.4096 59.1754 33.0758 59.5423 32.8366C59.9117 32.5952 60.3425 32.4744 60.835 32.4744C61.1191 32.4744 61.3996 32.5218 61.6766 32.6165C61.9536 32.7112 62.2057 32.8651 62.433 33.0781C62.6602 33.2888 62.8414 33.5682 62.9763 33.9162C63.1112 34.2642 63.1787 34.6927 63.1787 35.2017V35.5568H58.9742V34.8324H62.3264C62.3264 34.5246 62.2649 34.25 62.1418 34.0085C62.021 33.767 61.8482 33.5765 61.6233 33.4368C61.4008 33.2971 61.138 33.2273 60.835 33.2273C60.5012 33.2273 60.2123 33.3101 59.9685 33.4759C59.727 33.6392 59.5412 33.8523 59.411 34.1151C59.2807 34.3778 59.2156 34.6596 59.2156 34.9602V35.4432C59.2156 35.8551 59.2867 36.2043 59.4287 36.4908C59.5731 36.7749 59.7732 36.9915 60.0289 37.1406C60.2845 37.2874 60.5816 37.3608 60.9202 37.3608C61.1404 37.3608 61.3392 37.33 61.5168 37.2685C61.6967 37.2045 61.8518 37.1098 61.982 36.9844C62.1122 36.8565 62.2128 36.6979 62.2838 36.5085L63.0935 36.7358C63.0083 37.0104 62.865 37.2519 62.6638 37.4602C62.4626 37.6662 62.214 37.8272 61.9181 37.9432C61.6221 38.0568 61.2895 38.1136 60.9202 38.1136ZM68.3172 33.767L67.5644 33.9801C67.517 33.8546 67.4472 33.7327 67.3548 33.6143C67.2649 33.4936 67.1418 33.3942 66.9855 33.3161C66.8293 33.2379 66.6292 33.1989 66.3854 33.1989C66.0516 33.1989 65.7734 33.2758 65.5509 33.4297C65.3307 33.5812 65.2206 33.7741 65.2206 34.0085C65.2206 34.2169 65.2964 34.3814 65.4479 34.5021C65.5994 34.6229 65.8361 34.7235 66.1581 34.804L66.9678 35.0028C67.4555 35.1212 67.8189 35.3023 68.058 35.5462C68.2971 35.7876 68.4166 36.099 68.4166 36.4801C68.4166 36.7926 68.3267 37.072 68.1468 37.3182C67.9692 37.5644 67.7206 37.7585 67.401 37.9006C67.0814 38.0426 66.7097 38.1136 66.286 38.1136C65.7296 38.1136 65.2691 37.9929 64.9046 37.7514C64.54 37.5099 64.3092 37.1572 64.2121 36.6932L65.0075 36.4943C65.0833 36.7879 65.2265 37.008 65.4372 37.1548C65.6503 37.3016 65.9285 37.375 66.2718 37.375C66.6624 37.375 66.9725 37.2921 67.2021 37.1264C67.4342 36.9583 67.5502 36.7571 67.5502 36.5227C67.5502 36.3333 67.4839 36.1747 67.3513 36.0469C67.2187 35.9167 67.0151 35.8196 66.7405 35.7557L65.8314 35.5426C65.3319 35.4242 64.9649 35.2408 64.7306 34.9922C64.4985 34.7412 64.3825 34.4276 64.3825 34.0511C64.3825 33.7434 64.469 33.4711 64.6418 33.2344C64.817 32.9976 65.0549 32.8118 65.3556 32.6768C65.6586 32.5419 66.0019 32.4744 66.3854 32.4744C66.9252 32.4744 67.3489 32.5928 67.6567 32.8295C67.9668 33.0663 68.187 33.3788 68.3172 33.767Z" fill="#667085"/>
</svg>
