<svg width="88" height="46" viewBox="0 0 88 46" fill="none" xmlns="http://www.w3.org/2000/svg">
<path d="M53.4808 6H35.0192C34.5944 6 34.25 6.38932 34.25 6.86956V20.7826C34.25 21.2628 34.5944 21.6522 35.0192 21.6522H53.4808C53.9055 21.6522 54.25 21.2628 54.25 20.7826V6.86956C54.25 6.38932 53.9055 6 53.4808 6Z" stroke="#FF3097" stroke-linecap="round" stroke-linejoin="round"/>
<path d="M42.7115 21.6521L41.1731 25.9999" stroke="#FF3097" stroke-linecap="round" stroke-linejoin="round"/>
<path d="M45.7885 21.6521L47.3269 25.9999" stroke="#FF3097" stroke-linecap="round" stroke-linejoin="round"/>
<path d="M39.6346 26H48.8654" stroke="#FF3097" stroke-linecap="round" stroke-linejoin="round"/>
<path d="M41.9423 13.8435H46.5887" stroke="#FF3097" stroke-linecap="round" stroke-linejoin="round"/>
<path d="M44.2654 11.2173V16.4697" stroke="#FF3097" stroke-linecap="round" stroke-linejoin="round"/>
<path d="M18.8691 38H16.6248V30.7273H18.9686C19.6741 30.7273 20.2778 30.8729 20.7797 31.1641C21.2815 31.4529 21.6663 31.8684 21.9338 32.4105C22.2013 32.9503 22.335 33.5966 22.335 34.3494C22.335 35.107 22.2001 35.7592 21.9302 36.3061C21.6603 36.8506 21.2673 37.2696 20.7512 37.5632C20.2351 37.8544 19.6078 38 18.8691 38ZM17.5055 37.2188H18.8123C19.4136 37.2188 19.912 37.1027 20.3074 36.8707C20.7027 36.6387 20.9975 36.3085 21.1916 35.88C21.3857 35.4515 21.4828 34.9413 21.4828 34.3494C21.4828 33.7623 21.3869 33.2569 21.1951 32.8331C21.0034 32.407 20.7169 32.0803 20.3358 31.853C19.9546 31.6233 19.4799 31.5085 18.9118 31.5085H17.5055V37.2188ZM23.6987 38V32.5455H24.5368V38H23.6987ZM24.1248 31.6364C23.9615 31.6364 23.8206 31.5807 23.7022 31.4695C23.5862 31.3582 23.5282 31.2244 23.5282 31.0682C23.5282 30.9119 23.5862 30.7782 23.7022 30.6669C23.8206 30.5556 23.9615 30.5 24.1248 30.5C24.2882 30.5 24.4279 30.5556 24.5439 30.6669C24.6622 30.7782 24.7214 30.9119 24.7214 31.0682C24.7214 31.2244 24.6622 31.3582 24.5439 31.4695C24.4279 31.5807 24.2882 31.6364 24.1248 31.6364ZM29.9354 33.767L29.1825 33.9801C29.1352 33.8546 29.0653 33.7327 28.973 33.6143C28.883 33.4936 28.7599 33.3942 28.6037 33.3161C28.4474 33.2379 28.2474 33.1989 28.0036 33.1989C27.6697 33.1989 27.3916 33.2758 27.169 33.4297C26.9489 33.5812 26.8388 33.7741 26.8388 34.0085C26.8388 34.2169 26.9145 34.3814 27.0661 34.5021C27.2176 34.6229 27.4543 34.7235 27.7763 34.804L28.5859 35.0028C29.0736 35.1212 29.437 35.3023 29.6761 35.5462C29.9152 35.7876 30.0348 36.099 30.0348 36.4801C30.0348 36.7926 29.9448 37.072 29.7649 37.3182C29.5874 37.5644 29.3388 37.7585 29.0192 37.9006C28.6996 38.0426 28.3279 38.1136 27.9041 38.1136C27.3478 38.1136 26.8873 37.9929 26.5227 37.7514C26.1581 37.5099 25.9273 37.1572 25.8303 36.6932L26.6257 36.4943C26.7015 36.7879 26.8447 37.008 27.0554 37.1548C27.2685 37.3016 27.5466 37.375 27.8899 37.375C28.2805 37.375 28.5907 37.2921 28.8203 37.1264C29.0523 36.9583 29.1683 36.7571 29.1683 36.5227C29.1683 36.3333 29.102 36.1747 28.9695 36.0469C28.8369 35.9167 28.6333 35.8196 28.3587 35.7557L27.4496 35.5426C26.95 35.4242 26.5831 35.2408 26.3487 34.9922C26.1167 34.7412 26.0007 34.4276 26.0007 34.0511C26.0007 33.7434 26.0871 33.4711 26.2599 33.2344C26.4351 32.9976 26.6731 32.8118 26.9737 32.6768C27.2768 32.5419 27.62 32.4744 28.0036 32.4744C28.5433 32.4744 28.9671 32.5928 29.2749 32.8295C29.585 33.0663 29.8052 33.3788 29.9354 33.767ZM31.2963 40.0455V32.5455H32.106V33.4119H32.2054C32.267 33.3172 32.3522 33.1965 32.4611 33.0497C32.5724 32.9006 32.731 32.768 32.937 32.652C33.1453 32.5336 33.427 32.4744 33.7821 32.4744C34.2414 32.4744 34.6462 32.5893 34.9966 32.8189C35.347 33.0485 35.6204 33.3741 35.8169 33.7955C36.0134 34.2169 36.1117 34.714 36.1117 35.2869C36.1117 35.8646 36.0134 36.3653 35.8169 36.7891C35.6204 37.2105 35.3482 37.5372 35.0002 37.7692C34.6522 37.9988 34.2509 38.1136 33.7963 38.1136C33.446 38.1136 33.1654 38.0556 32.9547 37.9396C32.744 37.8213 32.5819 37.6875 32.4682 37.5384C32.3546 37.3868 32.267 37.2614 32.2054 37.1619H32.1344V40.0455H31.2963ZM32.1202 35.2727C32.1202 35.6847 32.1806 36.0481 32.3013 36.3629C32.4221 36.6754 32.5984 36.9205 32.8304 37.098C33.0624 37.2732 33.3465 37.3608 33.6827 37.3608C34.0331 37.3608 34.3255 37.2685 34.5598 37.0838C34.7966 36.8968 34.9741 36.6458 35.0925 36.331C35.2132 36.0137 35.2736 35.661 35.2736 35.2727C35.2736 34.8892 35.2144 34.5436 35.0961 34.2358C34.9801 33.9257 34.8037 33.6806 34.5669 33.5007C34.3326 33.3184 34.0378 33.2273 33.6827 33.2273C33.3418 33.2273 33.0553 33.3137 32.8233 33.4865C32.5913 33.657 32.4161 33.8961 32.2978 34.2038C32.1794 34.5092 32.1202 34.8655 32.1202 35.2727ZM39.606 38.1136C39.1136 38.1136 38.6815 37.9964 38.3098 37.7621C37.9405 37.5277 37.6517 37.1998 37.4434 36.7784C37.2374 36.357 37.1344 35.8646 37.1344 35.3011C37.1344 34.733 37.2374 34.237 37.4434 33.8132C37.6517 33.3894 37.9405 33.0604 38.3098 32.826C38.6815 32.5916 39.1136 32.4744 39.606 32.4744C40.0984 32.4744 40.5293 32.5916 40.8986 32.826C41.2703 33.0604 41.5591 33.3894 41.7651 33.8132C41.9734 34.237 42.0776 34.733 42.0776 35.3011C42.0776 35.8646 41.9734 36.357 41.7651 36.7784C41.5591 37.1998 41.2703 37.5277 40.8986 37.7621C40.5293 37.9964 40.0984 38.1136 39.606 38.1136ZM39.606 37.3608C39.9801 37.3608 40.2878 37.2649 40.5293 37.0732C40.7708 36.8814 40.9495 36.6293 41.0655 36.3168C41.1815 36.0043 41.2395 35.6657 41.2395 35.3011C41.2395 34.9366 41.1815 34.5968 41.0655 34.282C40.9495 33.9671 40.7708 33.7126 40.5293 33.5185C40.2878 33.3243 39.9801 33.2273 39.606 33.2273C39.2319 33.2273 38.9242 33.3243 38.6827 33.5185C38.4412 33.7126 38.2625 33.9671 38.1465 34.282C38.0305 34.5968 37.9725 34.9366 37.9725 35.3011C37.9725 35.6657 38.0305 36.0043 38.1465 36.3168C38.2625 36.6293 38.4412 36.8814 38.6827 37.0732C38.9242 37.2649 39.2319 37.3608 39.606 37.3608ZM47.2205 33.767L46.4677 33.9801C46.4203 33.8546 46.3505 33.7327 46.2582 33.6143C46.1682 33.4936 46.0451 33.3942 45.8888 33.3161C45.7326 33.2379 45.5326 33.1989 45.2887 33.1989C44.9549 33.1989 44.6767 33.2758 44.4542 33.4297C44.234 33.5812 44.1239 33.7741 44.1239 34.0085C44.1239 34.2169 44.1997 34.3814 44.3512 34.5021C44.5027 34.6229 44.7395 34.7235 45.0614 34.804L45.8711 35.0028C46.3588 35.1212 46.7222 35.3023 46.9613 35.5462C47.2004 35.7876 47.32 36.099 47.32 36.4801C47.32 36.7926 47.23 37.072 47.0501 37.3182C46.8725 37.5644 46.6239 37.7585 46.3043 37.9006C45.9847 38.0426 45.613 38.1136 45.1893 38.1136C44.6329 38.1136 44.1725 37.9929 43.8079 37.7514C43.4433 37.5099 43.2125 37.1572 43.1154 36.6932L43.9109 36.4943C43.9866 36.7879 44.1299 37.008 44.3406 37.1548C44.5536 37.3016 44.8318 37.375 45.1751 37.375C45.5657 37.375 45.8758 37.2921 46.1055 37.1264C46.3375 36.9583 46.4535 36.7571 46.4535 36.5227C46.4535 36.3333 46.3872 36.1747 46.2546 36.0469C46.122 35.9167 45.9184 35.8196 45.6438 35.7557L44.7347 35.5426C44.2352 35.4242 43.8683 35.2408 43.6339 34.9922C43.4019 34.7412 43.2859 34.4276 43.2859 34.0511C43.2859 33.7434 43.3723 33.4711 43.5451 33.2344C43.7203 32.9976 43.9582 32.8118 44.2589 32.6768C44.5619 32.5419 44.9052 32.4744 45.2887 32.4744C45.8285 32.4744 46.2522 32.5928 46.56 32.8295C46.8701 33.0663 47.0903 33.3788 47.2205 33.767ZM48.5815 38V32.5455H49.4196V38H48.5815ZM49.0076 31.6364C48.8443 31.6364 48.7034 31.5807 48.585 31.4695C48.469 31.3582 48.411 31.2244 48.411 31.0682C48.411 30.9119 48.469 30.7782 48.585 30.6669C48.7034 30.5556 48.8443 30.5 49.0076 30.5C49.171 30.5 49.3107 30.5556 49.4267 30.6669C49.545 30.7782 49.6042 30.9119 49.6042 31.0682C49.6042 31.2244 49.545 31.3582 49.4267 31.4695C49.3107 31.5807 49.171 31.6364 49.0076 31.6364ZM53.3267 32.5455V33.2557H50.5V32.5455H53.3267ZM51.3239 31.2386H52.1619V36.4375C52.1619 36.6742 52.1963 36.8518 52.2649 36.9702C52.3359 37.0862 52.4259 37.1643 52.5348 37.2045C52.6461 37.2424 52.7633 37.2614 52.8864 37.2614C52.9787 37.2614 53.0545 37.2566 53.1136 37.2472C53.1728 37.2353 53.2202 37.2259 53.2557 37.2188L53.4261 37.9716C53.3693 37.9929 53.29 38.0142 53.1882 38.0355C53.0864 38.0592 52.9574 38.071 52.8011 38.071C52.5644 38.071 52.3324 38.0201 52.1051 37.9183C51.8802 37.8165 51.6932 37.6615 51.544 37.4531C51.3973 37.2448 51.3239 36.982 51.3239 36.6648V31.2386ZM54.5874 38V32.5455H55.4254V38H54.5874ZM55.0135 31.6364C54.8501 31.6364 54.7093 31.5807 54.5909 31.4695C54.4749 31.3582 54.4169 31.2244 54.4169 31.0682C54.4169 30.9119 54.4749 30.7782 54.5909 30.6669C54.7093 30.5556 54.8501 30.5 55.0135 30.5C55.1768 30.5 55.3165 30.5556 55.4325 30.6669C55.5509 30.7782 55.6101 30.9119 55.6101 31.0682C55.6101 31.2244 55.5509 31.3582 55.4325 31.4695C55.3165 31.5807 55.1768 31.6364 55.0135 31.6364ZM61.4206 32.5455L59.4036 38H58.5513L56.5343 32.5455H57.4434L58.949 36.892H59.0059L60.5115 32.5455H61.4206ZM64.5474 38.1136C64.055 38.1136 63.6229 37.9964 63.2512 37.7621C62.8819 37.5277 62.5931 37.1998 62.3848 36.7784C62.1788 36.357 62.0758 35.8646 62.0758 35.3011C62.0758 34.733 62.1788 34.237 62.3848 33.8132C62.5931 33.3894 62.8819 33.0604 63.2512 32.826C63.6229 32.5916 64.055 32.4744 64.5474 32.4744C65.0398 32.4744 65.4707 32.5916 65.84 32.826C66.2117 33.0604 66.5005 33.3894 66.7065 33.8132C66.9148 34.237 67.019 34.733 67.019 35.3011C67.019 35.8646 66.9148 36.357 66.7065 36.7784C66.5005 37.1998 66.2117 37.5277 65.84 37.7621C65.4707 37.9964 65.0398 38.1136 64.5474 38.1136ZM64.5474 37.3608C64.9215 37.3608 65.2292 37.2649 65.4707 37.0732C65.7122 36.8814 65.8909 36.6293 66.0069 36.3168C66.1229 36.0043 66.1809 35.6657 66.1809 35.3011C66.1809 34.9366 66.1229 34.5968 66.0069 34.282C65.8909 33.9671 65.7122 33.7126 65.4707 33.5185C65.2292 33.3243 64.9215 33.2273 64.5474 33.2273C64.1734 33.2273 63.8656 33.3243 63.6241 33.5185C63.3826 33.7126 63.2039 33.9671 63.0879 34.282C62.9719 34.5968 62.9139 34.9366 62.9139 35.3011C62.9139 35.6657 62.9719 36.0043 63.0879 36.3168C63.2039 36.6293 63.3826 36.8814 63.6241 37.0732C63.8656 37.2649 64.1734 37.3608 64.5474 37.3608ZM72.1619 33.767L71.4091 33.9801C71.3617 33.8546 71.2919 33.7327 71.1996 33.6143C71.1096 33.4936 70.9865 33.3942 70.8303 33.3161C70.674 33.2379 70.474 33.1989 70.2301 33.1989C69.8963 33.1989 69.6181 33.2758 69.3956 33.4297C69.1754 33.5812 69.0653 33.7741 69.0653 34.0085C69.0653 34.2169 69.1411 34.3814 69.2926 34.5021C69.4441 34.6229 69.6809 34.7235 70.0028 34.804L70.8125 35.0028C71.3002 35.1212 71.6636 35.3023 71.9027 35.5462C72.1418 35.7876 72.2614 36.099 72.2614 36.4801C72.2614 36.7926 72.1714 37.072 71.9915 37.3182C71.8139 37.5644 71.5653 37.7585 71.2457 37.9006C70.9261 38.0426 70.5545 38.1136 70.1307 38.1136C69.5743 38.1136 69.1139 37.9929 68.7493 37.7514C68.3847 37.5099 68.1539 37.1572 68.0568 36.6932L68.8523 36.4943C68.928 36.7879 69.0713 37.008 69.282 37.1548C69.495 37.3016 69.7732 37.375 70.1165 37.375C70.5071 37.375 70.8172 37.2921 71.0469 37.1264C71.2789 36.9583 71.3949 36.7571 71.3949 36.5227C71.3949 36.3333 71.3286 36.1747 71.196 36.0469C71.0634 35.9167 70.8598 35.8196 70.5852 35.7557L69.6761 35.5426C69.1766 35.4242 68.8097 35.2408 68.5753 34.9922C68.3433 34.7412 68.2273 34.4276 68.2273 34.0511C68.2273 33.7434 68.3137 33.4711 68.4865 33.2344C68.6617 32.9976 68.8996 32.8118 69.2003 32.6768C69.5033 32.5419 69.8466 32.4744 70.2301 32.4744C70.7699 32.4744 71.1937 32.5928 71.5014 32.8295C71.8116 33.0663 72.0317 33.3788 72.1619 33.767Z" fill="#FF3097"/>
</svg>
