<svg width="88" height="46" viewBox="0 0 88 46" fill="none" xmlns="http://www.w3.org/2000/svg">
<path d="M41.25 24.3334V16.0001H46.25V24.3334M36.25 13.5001L43.75 7.66675L51.25 13.5001V22.6667C51.25 23.1088 51.0744 23.5327 50.7618 23.8453C50.4493 24.1578 50.0254 24.3334 49.5833 24.3334H37.9167C37.4746 24.3334 37.0507 24.1578 36.7382 23.8453C36.4256 23.5327 36.25 23.1088 36.25 22.6667V13.5001Z" stroke="#667085" stroke-linecap="round" stroke-linejoin="round"/>
<path d="M33.1139 30.7273V38H32.2332V30.7273H33.1139ZM35.6041 34.7188V38H34.7661V32.5455H35.5757V33.3977H35.6468C35.7746 33.1207 35.9687 32.8982 36.2291 32.7301C36.4896 32.5597 36.8257 32.4744 37.2377 32.4744C37.607 32.4744 37.9301 32.5502 38.2071 32.7017C38.4841 32.8509 38.6995 33.0781 38.8534 33.3835C39.0073 33.6866 39.0843 34.0701 39.0843 34.5341V38H38.2462V34.5909C38.2462 34.1624 38.1349 33.8286 37.9124 33.5895C37.6898 33.348 37.3844 33.2273 36.9962 33.2273C36.7287 33.2273 36.4896 33.2853 36.2789 33.4013C36.0705 33.5173 35.906 33.6866 35.7852 33.9091C35.6645 34.1316 35.6041 34.4015 35.6041 34.7188ZM40.6157 38V32.5455H41.4537V38H40.6157ZM40.6583 31.8068L41.5248 30.1591H42.5049L41.3969 31.8068H40.6583ZM45.2046 38.1136C44.6933 38.1136 44.2529 37.9929 43.8836 37.7514C43.5143 37.5099 43.2302 37.1773 43.0313 36.7536C42.8325 36.3298 42.733 35.8456 42.733 35.3011C42.733 34.7472 42.8348 34.2583 43.0384 33.8345C43.2444 33.4084 43.5309 33.0758 43.8978 32.8366C44.2671 32.5952 44.698 32.4744 45.1904 32.4744C45.574 32.4744 45.9196 32.5455 46.2274 32.6875C46.5351 32.8295 46.7873 33.0284 46.9838 33.2841C47.1802 33.5398 47.3022 33.8381 47.3495 34.179H46.5115C46.4475 33.9304 46.3055 33.7102 46.0853 33.5185C45.8675 33.3243 45.574 33.2273 45.2046 33.2273C44.8779 33.2273 44.5915 33.3125 44.3453 33.483C44.1014 33.651 43.9108 33.889 43.7735 34.1967C43.6386 34.5021 43.5711 34.8608 43.5711 35.2727C43.5711 35.6941 43.6374 36.0611 43.77 36.3736C43.9049 36.6861 44.0943 36.9287 44.3382 37.1016C44.5844 37.2744 44.8732 37.3608 45.2046 37.3608C45.4224 37.3608 45.6201 37.3229 45.7977 37.2472C45.9752 37.1714 46.1256 37.0625 46.2487 36.9205C46.3718 36.7784 46.4594 36.608 46.5115 36.4091H47.3495C47.3022 36.7311 47.185 37.0211 46.998 37.2791C46.8133 37.5348 46.5683 37.7384 46.2629 37.8899C45.9598 38.0391 45.6071 38.1136 45.2046 38.1136ZM48.5747 38V32.5455H49.4127V38H48.5747ZM49.0008 31.6364C48.8374 31.6364 48.6966 31.5807 48.5782 31.4695C48.4622 31.3582 48.4042 31.2244 48.4042 31.0682C48.4042 30.9119 48.4622 30.7782 48.5782 30.6669C48.6966 30.5556 48.8374 30.5 49.0008 30.5C49.1642 30.5 49.3038 30.5556 49.4198 30.6669C49.5382 30.7782 49.5974 30.9119 49.5974 31.0682C49.5974 31.2244 49.5382 31.3582 49.4198 31.4695C49.3038 31.5807 49.1642 31.6364 49.0008 31.6364ZM53.1636 38.1136C52.6712 38.1136 52.2391 37.9964 51.8675 37.7621C51.4981 37.5277 51.2093 37.1998 51.001 36.7784C50.795 36.357 50.692 35.8646 50.692 35.3011C50.692 34.733 50.795 34.237 51.001 33.8132C51.2093 33.3894 51.4981 33.0604 51.8675 32.826C52.2391 32.5916 52.6712 32.4744 53.1636 32.4744C53.656 32.4744 54.0869 32.5916 54.4562 32.826C54.8279 33.0604 55.1167 33.3894 55.3227 33.8132C55.531 34.237 55.6352 34.733 55.6352 35.3011C55.6352 35.8646 55.531 36.357 55.3227 36.7784C55.1167 37.1998 54.8279 37.5277 54.4562 37.7621C54.0869 37.9964 53.656 38.1136 53.1636 38.1136ZM53.1636 37.3608C53.5377 37.3608 53.8454 37.2649 54.0869 37.0732C54.3284 36.8814 54.5071 36.6293 54.6231 36.3168C54.7391 36.0043 54.7971 35.6657 54.7971 35.3011C54.7971 34.9366 54.7391 34.5968 54.6231 34.282C54.5071 33.9671 54.3284 33.7126 54.0869 33.5185C53.8454 33.3243 53.5377 33.2273 53.1636 33.2273C52.7896 33.2273 52.4818 33.3243 52.2403 33.5185C51.9988 33.7126 51.8201 33.9671 51.7041 34.282C51.5881 34.5968 51.5301 34.9366 51.5301 35.3011C51.5301 35.6657 51.5881 36.0043 51.7041 36.3168C51.8201 36.6293 51.9988 36.8814 52.2403 37.0732C52.4818 37.2649 52.7896 37.3608 53.1636 37.3608Z" fill="#667085"/>
</svg>
