<svg width="40" height="40" viewBox="0 0 40 40" fill="none" xmlns="http://www.w3.org/2000/svg">
<g id="Subtract">
<path id="Subtract_2" fill-rule="evenodd" clip-rule="evenodd" d="M40 20C40 25.3043 37.8929 30.3914 34.1421 34.1421C30.3914 37.8929 25.3043 40 20 40C14.6957 40 9.60859 37.8929 5.85786 34.1421C2.10714 30.3914 0 25.3043 0 20C0 14.6957 2.10714 9.60859 5.85786 5.85786C9.60859 2.10714 14.6957 0 20 0C25.3043 0 30.3914 2.10714 34.1421 5.85786C37.8929 9.60859 40 14.6957 40 20ZM22.8571 22.0914C23.9465 21.4625 24.7979 20.4916 25.2793 19.3295C25.7607 18.1673 25.8451 16.8788 25.5196 15.6637C25.194 14.4487 24.4766 13.375 23.4786 12.6093C22.4807 11.8435 21.2579 11.4284 20 11.4284C18.7421 11.4284 17.5193 11.8435 16.5214 12.6093C15.5234 13.375 14.806 14.4487 14.4804 15.6637C14.1549 16.8788 14.2393 18.1673 14.7207 19.3295C15.2021 20.4916 16.0535 21.4625 17.1429 22.0914V27.1429C17.1429 27.9006 17.4439 28.6273 17.9797 29.1632C18.5155 29.699 19.2422 30 20 30C20.7578 30 21.4845 29.699 22.0203 29.1632C22.5561 28.6273 22.8571 27.9006 22.8571 27.1429V22.0914Z" fill="#FF3097"/>
</g>
</svg>
