<svg width="28" height="28" viewBox="0 0 28 28" fill="none" xmlns="http://www.w3.org/2000/svg">
<circle cx="14" cy="14" r="13.4" stroke="#FF0397" stroke-width="1.2"/>
<path d="M22.1667 22.8958V21C22.1667 19.9944 21.7672 19.03 21.0561 18.3189C20.345 17.6078 19.3806 17.2083 18.375 17.2083H10.7917C9.78605 17.2083 8.82163 17.6078 8.11055 18.3189C7.39948 19.03 7 19.9944 7 21V22.8958" stroke="#FF0397" stroke-width="1.2" stroke-linecap="round" stroke-linejoin="round"/>
<path d="M14.5833 13.4167C16.6774 13.4167 18.375 11.7191 18.375 9.62501C18.375 7.53093 16.6774 5.83334 14.5833 5.83334C12.4893 5.83334 10.7917 7.53093 10.7917 9.62501C10.7917 11.7191 12.4893 13.4167 14.5833 13.4167Z" stroke="#FF0397" stroke-width="1.2" stroke-linecap="round" stroke-linejoin="round"/>
</svg>
