<svg width="88" height="46" viewBox="0 0 88 46" fill="none" xmlns="http://www.w3.org/2000/svg">
<path d="M46.631 23.6191C46.631 24.2505 46.3801 24.8561 45.9336 25.3026C45.4871 25.7492 44.8815 26 44.25 26C43.6185 26 43.0129 25.7492 42.5664 25.3026C42.1199 24.8561 41.869 24.2505 41.869 23.6191M54.25 21.2381H34.25V21L35.0576 20.1353C36.6996 18.3756 37.7442 16.1426 38.0424 13.7544L38.3624 11.1982C38.5416 9.76304 39.2388 8.44275 40.323 7.48551C41.4072 6.52827 42.8037 6 44.25 6C45.6963 6 47.0928 6.52827 48.177 7.48551C49.2612 8.44275 49.9584 9.76304 50.1376 11.1982L50.4576 13.7553C50.756 16.1432 51.8006 18.3759 53.4424 20.1353L54.25 21V21.2381Z" stroke="#667085"/>
<path d="M21.2493 30.7273V38H20.397L16.4339 32.2898H16.3629V38H15.4822V30.7273H16.3345L20.3118 36.4517H20.3828V30.7273H21.2493ZM25.1138 38.1136C24.6214 38.1136 24.1893 37.9964 23.8176 37.7621C23.4483 37.5277 23.1595 37.1998 22.9512 36.7784C22.7452 36.357 22.6422 35.8646 22.6422 35.3011C22.6422 34.733 22.7452 34.237 22.9512 33.8132C23.1595 33.3894 23.4483 33.0604 23.8176 32.826C24.1893 32.5916 24.6214 32.4744 25.1138 32.4744C25.6062 32.4744 26.0371 32.5916 26.4064 32.826C26.7781 33.0604 27.0669 33.3894 27.2729 33.8132C27.4812 34.237 27.5854 34.733 27.5854 35.3011C27.5854 35.8646 27.4812 36.357 27.2729 36.7784C27.0669 37.1998 26.7781 37.5277 26.4064 37.7621C26.0371 37.9964 25.6062 38.1136 25.1138 38.1136ZM25.1138 37.3608C25.4879 37.3608 25.7956 37.2649 26.0371 37.0732C26.2786 36.8814 26.4573 36.6293 26.5733 36.3168C26.6893 36.0043 26.7473 35.6657 26.7473 35.3011C26.7473 34.9366 26.6893 34.5968 26.5733 34.282C26.4573 33.9671 26.2786 33.7126 26.0371 33.5185C25.7956 33.3243 25.4879 33.2273 25.1138 33.2273C24.7398 33.2273 24.432 33.3243 24.1905 33.5185C23.949 33.7126 23.7703 33.9671 23.6543 34.282C23.5383 34.5968 23.4803 34.9366 23.4803 35.3011C23.4803 35.6657 23.5383 36.0043 23.6543 36.3168C23.7703 36.6293 23.949 36.8814 24.1905 37.0732C24.432 37.2649 24.7398 37.3608 25.1138 37.3608ZM31.2369 32.5455V33.2557H28.4102V32.5455H31.2369ZM29.234 31.2386H30.0721V36.4375C30.0721 36.6742 30.1064 36.8518 30.1751 36.9702C30.2461 37.0862 30.3361 37.1643 30.445 37.2045C30.5562 37.2424 30.6734 37.2614 30.7965 37.2614C30.8888 37.2614 30.9646 37.2566 31.0238 37.2472C31.083 37.2353 31.1303 37.2259 31.1658 37.2188L31.3363 37.9716C31.2795 37.9929 31.2002 38.0142 31.0984 38.0355C30.9966 38.0592 30.8675 38.071 30.7113 38.071C30.4746 38.071 30.2425 38.0201 30.0153 37.9183C29.7904 37.8165 29.6033 37.6615 29.4542 37.4531C29.3074 37.2448 29.234 36.982 29.234 36.6648V31.2386ZM32.4975 38V32.5455H33.3356V38H32.4975ZM32.9237 31.6364C32.7603 31.6364 32.6194 31.5807 32.5011 31.4695C32.3851 31.3582 32.3271 31.2244 32.3271 31.0682C32.3271 30.9119 32.3851 30.7782 32.5011 30.6669C32.6194 30.5556 32.7603 30.5 32.9237 30.5C33.087 30.5 33.2267 30.5556 33.3427 30.6669C33.4611 30.7782 33.5202 30.9119 33.5202 31.0682C33.5202 31.2244 33.4611 31.3582 33.3427 31.4695C33.2267 31.5807 33.087 31.6364 32.9237 31.6364ZM37.2995 32.5455V33.2557H34.3592V32.5455H37.2995ZM35.2399 38V31.7926C35.2399 31.4801 35.3133 31.2197 35.46 31.0114C35.6068 30.803 35.7974 30.6468 36.0318 30.5426C36.2662 30.4384 36.5136 30.3864 36.774 30.3864C36.9799 30.3864 37.148 30.4029 37.2782 30.4361C37.4084 30.4692 37.5055 30.5 37.5694 30.5284L37.3279 31.2528C37.2853 31.2386 37.2261 31.2209 37.1504 31.1996C37.077 31.1783 36.9799 31.1676 36.8592 31.1676C36.5822 31.1676 36.3822 31.2375 36.2591 31.3771C36.1383 31.5168 36.0779 31.7216 36.0779 31.9915V38H35.2399ZM38.4741 38V32.5455H39.3121V38H38.4741ZM38.9002 31.6364C38.7369 31.6364 38.596 31.5807 38.4776 31.4695C38.3616 31.3582 38.3036 31.2244 38.3036 31.0682C38.3036 30.9119 38.3616 30.7782 38.4776 30.6669C38.596 30.5556 38.7369 30.5 38.9002 30.5C39.0636 30.5 39.2032 30.5556 39.3192 30.6669C39.4376 30.7782 39.4968 30.9119 39.4968 31.0682C39.4968 31.2244 39.4376 31.3582 39.3192 31.4695C39.2032 31.5807 39.0636 31.6364 38.9002 31.6364ZM43.063 38.1136C42.5517 38.1136 42.1113 37.9929 41.742 37.7514C41.3727 37.5099 41.0886 37.1773 40.8897 36.7536C40.6909 36.3298 40.5914 35.8456 40.5914 35.3011C40.5914 34.7472 40.6932 34.2583 40.8968 33.8345C41.1028 33.4084 41.3893 33.0758 41.7562 32.8366C42.1255 32.5952 42.5564 32.4744 43.0488 32.4744C43.4324 32.4744 43.778 32.5455 44.0858 32.6875C44.3935 32.8295 44.6457 33.0284 44.8422 33.2841C45.0386 33.5398 45.1606 33.8381 45.2079 34.179H44.3699C44.3059 33.9304 44.1639 33.7102 43.9437 33.5185C43.7259 33.3243 43.4324 33.2273 43.063 33.2273C42.7363 33.2273 42.4499 33.3125 42.2037 33.483C41.9598 33.651 41.7692 33.889 41.6319 34.1967C41.497 34.5021 41.4295 34.8608 41.4295 35.2727C41.4295 35.6941 41.4958 36.0611 41.6284 36.3736C41.7633 36.6861 41.9527 36.9287 42.1966 37.1016C42.4428 37.2744 42.7316 37.3608 43.063 37.3608C43.2808 37.3608 43.4785 37.3229 43.6561 37.2472C43.8336 37.1714 43.984 37.0625 44.1071 36.9205C44.2302 36.7784 44.3178 36.608 44.3699 36.4091H45.2079C45.1606 36.7311 45.0434 37.0211 44.8564 37.2791C44.6717 37.5348 44.4267 37.7384 44.1213 37.8899C43.8182 38.0391 43.4655 38.1136 43.063 38.1136ZM48.0382 38.1278C47.6925 38.1278 47.3788 38.0627 47.0971 37.9325C46.8154 37.8 46.5917 37.6094 46.426 37.3608C46.2602 37.1098 46.1774 36.8068 46.1774 36.4517C46.1774 36.1392 46.2389 35.8859 46.362 35.6918C46.4851 35.4953 46.6497 35.3414 46.8556 35.2301C47.0616 35.1188 47.2889 35.036 47.5375 34.9815C47.7884 34.9247 48.0405 34.8797 48.2939 34.8466C48.6253 34.804 48.894 34.772 49.1 34.7507C49.3083 34.727 49.4598 34.688 49.5545 34.6335C49.6516 34.5791 49.7001 34.4844 49.7001 34.3494V34.321C49.7001 33.9706 49.6042 33.6984 49.4125 33.5043C49.2231 33.3101 48.9354 33.2131 48.5495 33.2131C48.1494 33.2131 47.8358 33.3007 47.6085 33.4759C47.3812 33.651 47.2214 33.8381 47.1291 34.0369L46.3336 33.7528C46.4757 33.4214 46.6651 33.1634 46.9018 32.9787C47.1409 32.7917 47.4013 32.6615 47.6831 32.5881C47.9672 32.5123 48.2465 32.4744 48.5211 32.4744C48.6963 32.4744 48.8975 32.4957 49.1248 32.5384C49.3545 32.5786 49.5758 32.6626 49.7889 32.7905C50.0043 32.9183 50.1831 33.1113 50.3251 33.3693C50.4672 33.6274 50.5382 33.973 50.5382 34.4062V38H49.7001V37.2614H49.6575C49.6007 37.3797 49.506 37.5064 49.3734 37.6413C49.2408 37.7763 49.0645 37.8911 48.8443 37.9858C48.6241 38.0805 48.3554 38.1278 48.0382 38.1278ZM48.166 37.375C48.4975 37.375 48.7768 37.3099 49.0041 37.1797C49.2337 37.0495 49.4065 36.8814 49.5225 36.6754C49.6409 36.4695 49.7001 36.2528 49.7001 36.0256V35.2585C49.6646 35.3011 49.5865 35.3402 49.4657 35.3757C49.3474 35.4089 49.21 35.4384 49.0538 35.4645C48.8999 35.4882 48.7496 35.5095 48.6028 35.5284C48.4584 35.545 48.3412 35.5592 48.2512 35.571C48.0334 35.5994 47.8298 35.6456 47.6404 35.7095C47.4534 35.7711 47.3019 35.8646 47.1859 35.9901C47.0723 36.1132 47.0154 36.2812 47.0154 36.4943C47.0154 36.7855 47.1232 37.0057 47.3386 37.1548C47.5564 37.3016 47.8322 37.375 48.166 37.375ZM54.2837 38.1136C53.7724 38.1136 53.332 37.9929 52.9627 37.7514C52.5934 37.5099 52.3093 37.1773 52.1104 36.7536C51.9116 36.3298 51.8121 35.8456 51.8121 35.3011C51.8121 34.7472 51.9139 34.2583 52.1175 33.8345C52.3235 33.4084 52.61 33.0758 52.9769 32.8366C53.3462 32.5952 53.7771 32.4744 54.2695 32.4744C54.6531 32.4744 54.9987 32.5455 55.3065 32.6875C55.6142 32.8295 55.8664 33.0284 56.0629 33.2841C56.2594 33.5398 56.3813 33.8381 56.4286 34.179H55.5906C55.5266 33.9304 55.3846 33.7102 55.1644 33.5185C54.9466 33.3243 54.6531 33.2273 54.2837 33.2273C53.957 33.2273 53.6706 33.3125 53.4244 33.483C53.1805 33.651 52.9899 33.889 52.8526 34.1967C52.7177 34.5021 52.6502 34.8608 52.6502 35.2727C52.6502 35.6941 52.7165 36.0611 52.8491 36.3736C52.984 36.6861 53.1734 36.9287 53.4173 37.1016C53.6635 37.2744 53.9523 37.3608 54.2837 37.3608C54.5015 37.3608 54.6992 37.3229 54.8768 37.2472C55.0543 37.1714 55.2047 37.0625 55.3278 36.9205C55.4509 36.7784 55.5385 36.608 55.5906 36.4091H56.4286C56.3813 36.7311 56.2641 37.0211 56.0771 37.2791C55.8924 37.5348 55.6474 37.7384 55.342 37.8899C55.0389 38.0391 54.6862 38.1136 54.2837 38.1136ZM53.886 37.9716H54.582L54.5252 38.2557C54.7099 38.2841 54.8791 38.361 55.033 38.4865C55.1869 38.6143 55.2638 38.8168 55.2638 39.0938C55.2638 39.3991 55.1372 39.6477 54.8839 39.8395C54.6329 40.0336 54.2624 40.1307 53.7724 40.1307L53.744 39.5767C53.9641 39.5767 54.1464 39.5412 54.2908 39.4702C54.4376 39.4015 54.511 39.2855 54.511 39.1222C54.511 38.9588 54.4506 38.8475 54.3299 38.7884C54.2092 38.7292 54.0138 38.6889 53.744 38.6676L53.886 37.9716ZM59.8697 38.1136C59.3772 38.1136 58.9452 37.9964 58.5735 37.7621C58.2042 37.5277 57.9154 37.1998 57.707 36.7784C57.5011 36.357 57.3981 35.8646 57.3981 35.3011C57.3981 34.733 57.5011 34.237 57.707 33.8132C57.9154 33.3894 58.2042 33.0604 58.5735 32.826C58.9452 32.5916 59.3772 32.4744 59.8697 32.4744C60.3621 32.4744 60.793 32.5916 61.1623 32.826C61.534 33.0604 61.8228 33.3894 62.0288 33.8132C62.2371 34.237 62.3413 34.733 62.3413 35.3011C62.3413 35.8646 62.2371 36.357 62.0288 36.7784C61.8228 37.1998 61.534 37.5277 61.1623 37.7621C60.793 37.9964 60.3621 38.1136 59.8697 38.1136ZM59.8697 37.3608C60.2437 37.3608 60.5515 37.2649 60.793 37.0732C61.0344 36.8814 61.2132 36.6293 61.3292 36.3168C61.4452 36.0043 61.5032 35.6657 61.5032 35.3011C61.5032 34.9366 61.4452 34.5968 61.3292 34.282C61.2132 33.9671 61.0344 33.7126 60.793 33.5185C60.5515 33.3243 60.2437 33.2273 59.8697 33.2273C59.4956 33.2273 59.1879 33.3243 58.9464 33.5185C58.7049 33.7126 58.5262 33.9671 58.4102 34.282C58.2942 34.5968 58.2362 34.9366 58.2362 35.3011C58.2362 35.6657 58.2942 36.0043 58.4102 36.3168C58.5262 36.6293 58.7049 36.8814 58.9464 37.0732C59.1879 37.2649 59.4956 37.3608 59.8697 37.3608ZM58.7759 31.892L58.1225 31.8636C58.1225 31.5014 58.2255 31.2055 58.4315 30.9759C58.6398 30.7438 58.8967 30.6278 59.2021 30.6278C59.337 30.6278 59.4566 30.6515 59.5607 30.6989C59.6649 30.7438 59.7643 30.7959 59.859 30.8551C59.9537 30.9143 60.0508 30.9676 60.1502 31.0149C60.252 31.0599 60.3668 31.0824 60.4947 31.0824C60.6296 31.0824 60.7433 31.0303 60.8356 30.9261C60.9303 30.8196 60.9776 30.6918 60.9776 30.5426L61.6168 30.5994C61.6168 30.9687 61.5127 31.2623 61.3043 31.4801C61.0984 31.6979 60.8427 31.8068 60.5373 31.8068C60.3739 31.8068 60.239 31.7843 60.1325 31.7393C60.0259 31.692 59.9312 31.6387 59.8484 31.5795C59.7655 31.5204 59.6779 31.4683 59.5856 31.4233C59.4933 31.3759 59.3796 31.3523 59.2447 31.3523C59.1097 31.3523 58.9973 31.4055 58.9073 31.5121C58.8197 31.6162 58.7759 31.7429 58.7759 31.892ZM65.9075 38.1136C65.3819 38.1136 64.9286 37.9976 64.5474 37.7656C64.1686 37.5312 63.8762 37.2045 63.6703 36.7855C63.4667 36.3641 63.3649 35.8741 63.3649 35.3153C63.3649 34.7566 63.4667 34.2642 63.6703 33.8381C63.8762 33.4096 64.1627 33.0758 64.5297 32.8366C64.899 32.5952 65.3298 32.4744 65.8223 32.4744C66.1064 32.4744 66.3869 32.5218 66.6639 32.6165C66.9409 32.7112 67.193 32.8651 67.4203 33.0781C67.6475 33.2888 67.8287 33.5682 67.9636 33.9162C68.0985 34.2642 68.166 34.6927 68.166 35.2017V35.5568H63.9615V34.8324H67.3137C67.3137 34.5246 67.2522 34.25 67.1291 34.0085C67.0083 33.767 66.8355 33.5765 66.6106 33.4368C66.3881 33.2971 66.1253 33.2273 65.8223 33.2273C65.4885 33.2273 65.1996 33.3101 64.9558 33.4759C64.7143 33.6392 64.5285 33.8523 64.3983 34.1151C64.2681 34.3778 64.2029 34.6596 64.2029 34.9602V35.4432C64.2029 35.8551 64.274 36.2043 64.416 36.4908C64.5604 36.7749 64.7605 36.9915 65.0162 37.1406C65.2718 37.2874 65.569 37.3608 65.9075 37.3608C66.1277 37.3608 66.3265 37.33 66.5041 37.2685C66.684 37.2045 66.8391 37.1098 66.9693 36.9844C67.0995 36.8565 67.2001 36.6979 67.2711 36.5085L68.0808 36.7358C67.9956 37.0104 67.8523 37.2519 67.6511 37.4602C67.4499 37.6662 67.2013 37.8272 66.9054 37.9432C66.6094 38.0568 66.2768 38.1136 65.9075 38.1136ZM73.3045 33.767L72.5517 33.9801C72.5043 33.8546 72.4345 33.7327 72.3422 33.6143C72.2522 33.4936 72.1291 33.3942 71.9728 33.3161C71.8166 33.2379 71.6165 33.1989 71.3727 33.1989C71.0389 33.1989 70.7607 33.2758 70.5382 33.4297C70.318 33.5812 70.2079 33.7741 70.2079 34.0085C70.2079 34.2169 70.2837 34.3814 70.4352 34.5021C70.5867 34.6229 70.8234 34.7235 71.1454 34.804L71.9551 35.0028C72.4428 35.1212 72.8062 35.3023 73.0453 35.5462C73.2844 35.7876 73.4039 36.099 73.4039 36.4801C73.4039 36.7926 73.314 37.072 73.1341 37.3182C72.9565 37.5644 72.7079 37.7585 72.3883 37.9006C72.0687 38.0426 71.697 38.1136 71.2733 38.1136C70.7169 38.1136 70.2565 37.9929 69.8919 37.7514C69.5273 37.5099 69.2965 37.1572 69.1994 36.6932L69.9949 36.4943C70.0706 36.7879 70.2138 37.008 70.4245 37.1548C70.6376 37.3016 70.9158 37.375 71.2591 37.375C71.6497 37.375 71.9598 37.2921 72.1895 37.1264C72.4215 36.9583 72.5375 36.7571 72.5375 36.5227C72.5375 36.3333 72.4712 36.1747 72.3386 36.0469C72.206 35.9167 72.0024 35.8196 71.7278 35.7557L70.8187 35.5426C70.3192 35.4242 69.9522 35.2408 69.7179 34.9922C69.4859 34.7412 69.3699 34.4276 69.3699 34.0511C69.3699 33.7434 69.4563 33.4711 69.6291 33.2344C69.8043 32.9976 70.0422 32.8118 70.3429 32.6768C70.6459 32.5419 70.9892 32.4744 71.3727 32.4744C71.9125 32.4744 72.3362 32.5928 72.644 32.8295C72.9541 33.0663 73.1743 33.3788 73.3045 33.767Z" fill="#667085"/>
</svg>
